{"title":"Boardwalk Empire S04E02 720p x264 [MKV,AC3,5.1] Ehhhh","uid":8932849,"size":615857343,"categoryP":"video","categoryS":"hd___tv_shows","magnet":"?xt=urn:btih:6ca284804004d95f1d15782c4331225fcaa2c102&amp;dn=Boardwalk+Empire+S04E02+720p+x264+%5BMKV%2CAC3%2C5.1%5D+Ehhhh&amp;tr=udp%3A%2F%2Ftracker.openbittorrent.com%3A80&amp;tr=udp%3A%2F%2Fopen.demonii.com%3A1337&amp;tr=udp%3A%2F%2Ftracker.coppersurfer.tk%3A6969&amp;tr=udp%3A%2F%2Fexodus.desync.com%3A6969","seeders":1,"leechers":1,"uploader":"Ehhhhtozebec","files":-1,"time":1379493832,"description":"imageimage\n\nResignation Season 4, Episode 2\n\nDr. Valentin Narcisse arrives in Atlantic City, and clashes with Nucky and Chalkie over the disappearance of an employee. Meanwhile, Dean O'Banion enlists Van Alden to keep an eye on Al Capone, starting with a political rally outside Chicago; Agent Knox reports to J. Edgar Hoover in Washington, D.C.; and Eddie demands a promotion from Nucky after 11 years of service\n\n\nimage\n\nGeneral\nFormat : Matroska\nFormat version : Version 4 / Version 2\nFile size : 587 MiB\nDuration : 59mn 7s\nOverall bit rate : 1 387 Kbps\nEncoded date : UTC 2013-09-17 16:10:14\nWriting application : mkvmerge v6.2.0 ('Promised Land') built on Apr 28 2013 12:22:01\nWriting library : libebml v1.3.0 + libmatroska v1.4.0\n\nVideo\nID : 1\nFormat : AVC\nFormat/Info : Advanced Video Codec\nFormat profile : &lt;a class=&quot;__cf_email__&quot; href=&quot;/cdn-cgi/l/email-protection&quot; data-cfemail=&quot;2169484649616d150f10&quot;&gt;[email&amp;#160;protected]&lt;/a&gt;&lt;script cf-hash='f9e31' type=&quot;text/javascript&quot;&gt;\n/* &lt;![CDATA[ */!function(){try{var t=&quot;currentScript&quot;in document?document.currentScript:function(){for(var t=document.getElementsByTagName(&quot;script&quot;),e=t.length;e--;)if(t[e].getAttribute(&quot;cf-hash&quot;))return t[e]}();if(t&amp;&amp;t.previousSibling){var e,r,n,i,c=t.previousSibling,a=c.getAttribute(&quot;data-cfemail&quot;);if(a){for(e=&quot;&quot;,r=parseInt(a.substr(0,2),16),n=2;a.length-n;n+=2)i=parseInt(a.substr(n,2),16)^r,e+=String.fromCharCode(i);e=document.createTextNode(e),c.parentNode.replaceChild(e,c)}}}catch(u){}}();/* ]]&gt; */&lt;/script&gt;\nFormat settings, CABAC : Yes\nFormat settings, ReFrames : 14 frames\nCodec ID : V_MPEG4/ISO/AVC\nDuration : 59mn 7s\nBit rate : 1 010 Kbps\nWidth : 1 280 pixels\nHeight : 720 pixels\nDisplay aspect ratio : 16:9\nFrame rate mode : Constant\nFrame rate : 23.976 fps\nColor space : YUV\nChroma subsampling : 4:2:0\nBit depth : 8 bits\nScan type : Progressive\nBits/(Pixel*Frame) : 0.046\nStream size : 412 MiB (70%)\nWriting library : x264 core 138 r2359+704+48 3f879a0 tMod [8-bit@all X86]\nDefault : Yes\nForced : No\n\nAudio\nID : 2\nFormat : AC-3\nFormat/Info : Audio Coding 3\nMode extension : CM (complete main)\nFormat settings, Endianness : Big\nCodec ID : A_AC3\nDuration : 59mn 7s\nBit rate mode : Constant\nBit rate : 384 Kbps\nChannel(s) : 6 channels\nChannel positions : Front: L C R, Side: L R, LFE\nSampling rate : 48.0 KHz\nBit depth : 16 bits\nCompression mode : Lossy\nStream size : 162 MiB (28%)\nDefault : Yes\nForced : No","torrent":{"xt":"urn:btih:6ca284804004d95f1d15782c4331225fcaa2c102","amp;dn":"Boardwalk+Empire+S04E02+720p+x264+%5BMKV%2CAC3%2C5.1%5D+Ehhhh","amp;tr":["udp%3A%2F%2Ftracker.openbittorrent.com%3A80","udp%3A%2F%2Fopen.demonii.com%3A1337","udp%3A%2F%2Ftracker.coppersurfer.tk%3A6969","udp%3A%2F%2Fexodus.desync.com%3A6969"],"infoHash":"6ca284804004d95f1d15782c4331225fcaa2c102","infoHashBuffer":{"type":"Buffer","data":[108,162,132,128,64,4,217,95,29,21,120,44,67,49,34,95,202,162,193,2]},"announce":[],"urlList":[]}}